<svg xmlns="http://www.w3.org/2000/svg" xmlns:xlink="http://www.w3.org/1999/xlink" width="52.000579833984375" height="90.11360168457031" viewBox="0 0 52.000579833984375 90.11360168457031" fill="none"><g opacity="1"  transform="translate(0.000579833984375 0)  rotate(0)"><path id="路径 2" fill-rule="evenodd" style="fill:#7C2D7B" opacity="1" d="M22.7584,27.1645zM22.7584,27.1645h6.45c1.95,0 3.54,1.54 3.54,3.45v3.87h-13.53v-3.87c0,-1.91 1.59,-3.45 3.54,-3.45z"></path><path id="路径 3" fill-rule="evenodd" style="fill:#7C2D7B" opacity="1" d="M18.1252,36.7147zM19.2152,37.7747c-0.6,0 -1.09,-0.47 -1.09,-1.06v-1.71c0,-0.58 0.49,-1.06 1.09,-1.06c0.61,0 1.1,0.48 1.1,1.06v1.71c0,0.59 -0.49,1.06 -1.1,1.06z"></path><path id="路径 4" fill-rule="evenodd" style="fill:#FCFCFC" opacity="1" d="M18.8915,37.6761zM20.3115,39.0661c-0.78,0 -1.42,-0.62 -1.42,-1.39v-3.5c0,-0.76 0.64,-1.38 1.42,-1.38c0.78,0 1.42,0.62 1.42,1.38v3.5c0,0.77 -0.64,1.39 -1.42,1.39z"></path><path id="路径 5" fill-rule="evenodd" style="fill:#7C2D7B" opacity="1" d="M33.8434,36.7147zM33.8434,36.7147c0,0.59 -0.49,1.06 -1.1,1.06c-0.6,0 -1.09,-0.47 -1.09,-1.06v-1.71c0,-0.58 0.49,-1.06 1.09,-1.06c0.61,0 1.1,0.48 1.1,1.06z"></path><path id="路径 6" fill-rule="evenodd" style="fill:#FCFCFC" opacity="1" d="M33.0734,37.6761zM33.0734,37.6761c0,0.77 -0.64,1.39 -1.42,1.39c-0.78,0 -1.42,-0.62 -1.42,-1.39v-3.5c0,-0.76 0.64,-1.38 1.42,-1.38c0.78,0 1.42,0.62 1.42,1.38z"></path><path id="路径 7" fill-rule="evenodd" style="fill:#7C2D7B" opacity="1" d="M36.0751,48.0436zM25.9851,90.1136h-14.13l4.03,-42.07l8.18,-3.27h1.92h1.91l8.18,3.27l4.03,42.07z"></path><path id="路径 8" fill-rule="evenodd" style="fill:#FCFCFC" opacity="1" d="M29.9354,46.9237zM21.9454,46.9237v-1.3001l2.12,-0.8499h1.92h1.91l2.04,0.82v1.33c0,2.1299 -1.77,3.85 -3.95,3.85h-0.08c-2.19,0 -3.96,-1.7201 -3.96,-3.85z"></path><path id="路径 9" fill-rule="evenodd" style="fill:#D3635B" opacity="1" d="M15.887,48.0419zM15.037,48.4019l0.85,-0.36l-1.42,14.8l-3.91,12.03l-9.44999,2.76l7.11,-21.91c1.07,-3.29 3.55999,-5.97 6.81999,-7.32z"></path><path id="路径 10" fill-rule="evenodd" style="fill:#D3635B" opacity="1" d="M36.0793,48.0419zM36.0793,48.0419l0.85,0.36c3.26,1.35 5.75,4.03 6.82,7.32l7.11,21.91l-9.45,-2.76l-3.91,-12.03z"></path><path id="路径 11" fill-rule="evenodd" style="fill:#FF7E6E" opacity="1" d="M25.9724,49.4691zM25.9724,49.4691h-0.06c-1.51,0 -2.74,-1.2 -2.74,-2.67v-6.72h5.54v6.72c0,1.47 -1.23,2.67 -2.74,2.67z"></path><path id="路径 12" fill-rule="evenodd" style="fill:#171905" opacity="1" d="M23.1724,40.0791zM23.1724,45.1291v-5.05h5.54v2.22c0,0 -1.55,2.66 -5.54,2.83z"></path><path id="矩形 2" fill-rule="evenodd" style="fill:#FCFCFC" opacity="1" d="M17.4597 65.992L34.3297 65.992L34.3297 60.402L17.4597 60.402L17.4597 65.992Z"></path><g opacity="1"  transform="translate(20.160629272460938 58.65884780883789)  rotate(0)"><path id="路径 13" fill-rule="evenodd" style="fill:#00FFD2" opacity="1" d="M3.54,2.6zM3.54,2.6c0,1.44 -0.24,2.6 -0.53,2.6h-2.48c-0.29,0 -0.53,-1.16 -0.53,-2.6c0,-1.44 0.24,-2.6 0.53,-2.6h2.48c0.29,0 0.53,1.16 0.53,2.6z"></path><path id="矩形 3" fill-rule="evenodd" style="fill:#00FFD2" opacity="1" d="M-1.1281 1.74458L4.2719 1.74458L4.2719 -1.85542L-1.1281 -1.85542L-1.1281 1.74458Z"></path></g><g opacity="1"  transform="translate(28.167434692382812 58.65884780883789)  rotate(0)"><path id="路径 14" fill-rule="evenodd" style="fill:#00FFD2" opacity="1" d="M3.54,2.6zM3.54,2.6c0,1.44 -0.24,2.6 -0.53,2.6h-2.48c-0.29,0 -0.53,-1.16 -0.53,-2.6c0,-1.44 0.24,-2.6 0.53,-2.6h2.48c0.29,0 0.53,1.16 0.53,2.6z"></path><path id="矩形 4" fill-rule="evenodd" style="fill:#00FFD2" opacity="1" d="M-1.12791 1.74458L4.27208 1.74458L4.27208 -1.85542L-1.12791 -1.85542L-1.12791 1.74458Z"></path></g><path id="矩形 5" fill-rule="evenodd" style="fill:#00A0A5" opacity="1" d="M23.4513 63.4512C23.7113 63.4512 23.9613 63.3512 24.1513 63.1712C24.3313 62.9912 24.4313 62.7512 24.4313 62.4912L24.4313 62.4712C24.4313 62.2212 24.3313 61.9712 24.1513 61.7912C23.9613 61.6112 23.7113 61.5112 23.4513 61.5112L19.4813 61.5112C19.2113 61.5112 18.9613 61.6112 18.7813 61.7912C18.5913 61.9712 18.4913 62.2212 18.4913 62.4712L18.4913 62.4912C18.4913 62.7512 18.5913 62.9912 18.7813 63.1712C18.9613 63.3512 19.2113 63.4512 19.4813 63.4512L23.4513 63.4512Z"></path><path id="矩形 6" fill-rule="evenodd" style="fill:#00A0A5" opacity="1" d="M32.4353 63.4512C32.6953 63.4512 32.9453 63.3512 33.1353 63.1712C33.3153 62.9912 33.4153 62.7512 33.4153 62.4912L33.4153 62.4712C33.4153 62.2212 33.3153 61.9712 33.1353 61.7912C32.9453 61.6112 32.6953 61.5112 32.4353 61.5112L28.4653 61.5112C28.1953 61.5112 27.9453 61.6112 27.7653 61.7912C27.5753 61.9712 27.4753 62.2212 27.4753 62.4712L27.4753 62.4912C27.4753 62.7512 27.5753 62.9912 27.7653 63.1712C27.9453 63.3512 28.1953 63.4512 28.4653 63.4512L32.4353 63.4512Z"></path><path id="矩形 7" fill-rule="evenodd" style="fill:#A85ED6" opacity="0.29" d="M17.4597 65.984L34.3297 65.984L34.3297 64.324L17.4597 64.324L17.4597 65.984Z"></path><path id="路径 15" fill-rule="evenodd" style="fill:#A85ED6" opacity="1" d="M8.22256,55.7219zM6.92256,59.7119l1.3,-3.99c1.06,-3.29 3.55004,-5.97 6.81004,-7.32l0.85,-0.36l-1.33,13.92c-2.01,-2 -5.25004,-2.33 -7.63004,-2.25z"></path><path id="路径 16" fill-rule="evenodd" style="fill:#A85ED6" opacity="1" d="M43.7493,55.7219zM43.7493,55.7219l1.29,3.99c-2.38,-0.08 -5.62,0.25 -7.63,2.25l-1.33,-13.92l0.85,0.36c3.26,1.35 5.75,4.03 6.82,7.32z"></path><path id="路径 17" fill-rule="evenodd" style="fill:#00A0A5" opacity="1" d="M31.6905,32.5124zM30.9705,26.2924c1.16,2.08 0.72,6.22 0.72,6.22c0,0 -1.9,0.76 -11.41,0.45c-1.28,-7.5 2.08,-8.81 4.22,-8.93c2.14,-0.12 5.31,0.18 6.47,2.26z"></path><path id="路径 18" fill-rule="evenodd" style="fill:#00A0A5" opacity="1" d="M21.0466,25.8207zM20.3166,27.4007c0.18,-0.64 0.43,-1.16 0.73,-1.58c0,0 7.9,-1.13 10.64,3.12c0.19,1.8 0.01,3.57 0.01,3.57c0,0 -0.83,0.33 -4.12,0.47z"></path><path id="路径 19" fill-rule="evenodd" style="fill:#00FFD2" opacity="1" d="M31.6775,32.9578zM27.4675,26.8278c4.68,2.44 4.21,6.13 4.21,6.13c0,0 -10.03,2.06 -11.28,1.43c-5.03,-9.04 2.39,-10 7.07,-7.56z"></path><path id="路径 20" fill-rule="evenodd" style="fill:#FF7E6E" opacity="1" d="M25.9843,28.0996zM20.3343,33.8696c-0.66,-5.54 5.65,-5.77 5.65,-5.77c0,0 6.31,0.23 5.65,5.77c-0.46,3.85 -0.8,5.42 -0.97,6.01c-0.06,0.21 -0.15,0.4 -0.27,0.58c-0.51,0.74 -2.23,2.96 -4.41,2.96c-2.18,0 -3.9,-2.22 -4.42,-2.96c-0.12,-0.18 -0.21,-0.37 -0.26,-0.58c-0.17,-0.59 -0.51,-2.16 -0.97,-6.01z"></path><path id="路径 21 (轮廓)" fill-rule="evenodd" style="fill:#892727" opacity="1" d="M24.3836 34.6976C24.4126 34.7126 24.4426 34.7216 24.4756 34.7246C24.5076 34.7276 24.5386 34.7246 24.5696 34.7146C24.6006 34.7056 24.6286 34.6906 24.6536 34.6706C24.6786 34.6506 24.6986 34.6266 24.7146 34.5996C24.7176 34.5926 24.7216 34.5856 24.7246 34.5776C24.7276 34.5706 24.7306 34.5636 24.7326 34.5566C24.7346 34.5486 24.7366 34.5416 24.7386 34.5336C24.7396 34.5256 24.7406 34.5186 24.7416 34.5106C24.7426 34.5026 24.7426 34.4946 24.7426 34.4866C24.7426 34.4796 24.7426 34.4716 24.7416 34.4636C24.7406 34.4556 24.7396 34.4486 24.7376 34.4406C24.7366 34.4326 24.7346 34.4256 24.7316 34.4186C24.7296 34.4106 24.7266 34.4036 24.7236 34.3966C24.7206 34.3886 24.7176 34.3816 24.7136 34.3756C24.7096 34.3686 24.7056 34.3616 24.7016 34.3556C24.6966 34.3486 24.6916 34.3426 24.6866 34.3366C24.6816 34.3306 24.6766 34.3246 24.6706 34.3196C24.6656 34.3136 24.6596 34.3086 24.6526 34.3036C24.6466 34.2986 24.6406 34.2936 24.6336 34.2896C24.6266 34.2856 24.6206 34.2816 24.6136 34.2776C24.3696 34.1516 24.0766 34.0586 23.7346 33.9966C23.0376 33.8716 22.4196 33.9676 21.8816 34.2846C21.8746 34.2886 21.8676 34.2926 21.8616 34.2976C21.8556 34.3016 21.8486 34.3066 21.8426 34.3126C21.8376 34.3176 21.8316 34.3226 21.8266 34.3286C21.8206 34.3346 21.8156 34.3406 21.8106 34.3466C21.8066 34.3536 21.8016 34.3596 21.7976 34.3666C21.7936 34.3726 21.7896 34.3796 21.7866 34.3866C21.7836 34.3936 21.7806 34.4016 21.7776 34.4086C21.7746 34.4156 21.7726 34.4236 21.7706 34.4306C21.7686 34.4386 21.7676 34.4456 21.7656 34.4536C21.7646 34.4616 21.7646 34.4696 21.7636 34.4766C21.7636 34.4846 21.7636 34.4926 21.7636 34.5006C21.7646 34.5076 21.7656 34.5156 21.7666 34.5236C21.7676 34.5316 21.7696 34.5386 21.7716 34.5466C21.7736 34.5536 21.7756 34.5616 21.7786 34.5686C21.7806 34.5756 21.7836 34.5836 21.7876 34.5906C21.7906 34.5976 21.7946 34.6036 21.7986 34.6106C21.8156 34.6376 21.8366 34.6606 21.8636 34.6796C21.8896 34.6976 21.9176 34.7106 21.9496 34.7186C21.9806 34.7256 22.0126 34.7276 22.0446 34.7226C22.0766 34.7176 22.1066 34.7076 22.1346 34.6906C22.5666 34.4366 23.0706 34.3606 23.6456 34.4646C23.9386 34.5166 24.1846 34.5946 24.3836 34.6976Z"></path><path id="路径 22 (轮廓)" fill-rule="evenodd" style="fill:#892727" opacity="1" d="M27.3512 34.2776C27.3442 34.2816 27.3372 34.2856 27.3302 34.2896C27.3242 34.2936 27.3172 34.2986 27.3112 34.3036C27.3052 34.3086 27.2992 34.3136 27.2932 34.3186C27.2872 34.3246 27.2822 34.3306 27.2772 34.3366C27.2722 34.3426 27.2672 34.3486 27.2632 34.3546C27.2582 34.3616 27.2542 34.3686 27.2502 34.3746C27.2462 34.3816 27.2432 34.3886 27.2402 34.3956C27.2372 34.4036 27.2342 34.4106 27.2322 34.4176C27.2292 34.4256 27.2272 34.4326 27.2262 34.4406C27.2242 34.4486 27.2232 34.4556 27.2222 34.4636C27.2212 34.4716 27.2212 34.4796 27.2212 34.4866C27.2212 34.4946 27.2212 34.5026 27.2222 34.5106C27.2232 34.5176 27.2242 34.5256 27.2262 34.5336C27.2272 34.5406 27.2292 34.5486 27.2312 34.5556C27.2342 34.5636 27.2362 34.5706 27.2392 34.5776C27.2422 34.5856 27.2462 34.5926 27.2502 34.5986C27.2652 34.6266 27.2852 34.6506 27.3102 34.6706C27.3352 34.6906 27.3632 34.7056 27.3942 34.7146C27.4252 34.7246 27.4562 34.7276 27.4882 34.7246C27.5212 34.7216 27.5512 34.7126 27.5802 34.6976C27.7792 34.5946 28.0252 34.5166 28.3192 34.4646C28.8952 34.3606 29.3992 34.4366 29.8312 34.6906C29.8592 34.7076 29.8892 34.7176 29.9212 34.7226C29.9532 34.7276 29.9852 34.7256 30.0162 34.7186C30.0482 34.7106 30.0772 34.6976 30.1032 34.6796C30.1292 34.6606 30.1502 34.6376 30.1672 34.6106C30.1712 34.6036 30.1752 34.5976 30.1782 34.5906C30.1822 34.5836 30.1852 34.5756 30.1882 34.5686C30.1902 34.5616 30.1932 34.5536 30.1952 34.5466C30.1972 34.5386 30.1982 34.5316 30.1992 34.5236C30.2012 34.5156 30.2012 34.5076 30.2022 34.5006C30.2022 34.4926 30.2022 34.4846 30.2022 34.4766C30.2022 34.4696 30.2012 34.4616 30.2002 34.4536C30.1992 34.4456 30.1972 34.4386 30.1952 34.4306C30.1932 34.4236 30.1912 34.4156 30.1882 34.4086C30.1862 34.4016 30.1832 34.3936 30.1792 34.3866C30.1762 34.3796 30.1722 34.3726 30.1682 34.3666C30.1642 34.3596 30.1592 34.3536 30.1552 34.3466C30.1502 34.3406 30.1452 34.3346 30.1402 34.3286C30.1342 34.3226 30.1292 34.3176 30.1232 34.3126C30.1172 34.3066 30.1112 34.3016 30.1042 34.2976C30.0982 34.2926 30.0912 34.2886 30.0842 34.2846C29.5462 33.9676 28.9282 33.8716 28.2302 33.9966C27.8872 34.0586 27.5942 34.1516 27.3512 34.2776Z"></path><path id="路径 23" fill-rule="evenodd" style="fill:#B0322F" opacity="1" d="M25.9843,28.0996zM25.9843,28.0996c0,0 6.31,0.23 5.65,5.77c-0.03,0.21 -0.05,0.4 -0.07,0.6l-1.27,-3.58c0,0 -2.81,1.86 -3.99,1.96c-1.18,0.1 0.25,-2.12 0.25,-2.12c0,0 -3.63,3.05 -6.16,3.66c-0.02,-0.17 -0.04,-0.34 -0.06,-0.52c-0.66,-5.54 5.65,-5.77 5.65,-5.77z"></path><path id="路径 24" fill-rule="evenodd" style="fill:#FCFCFC" opacity="1" d="M25.9615,38.8466zM23.9315,38.7166c0.66,0.09 1.34,0.13 2.03,0.13c0.68,0 1.36,-0.04 2.03,-0.13c0.34,-0.04 0.56,0.34 0.35,0.61c-0.55,0.69 -1.41,1.14 -2.38,1.14c-0.97,0 -1.84,-0.45 -2.39,-1.14c-0.21,-0.27 0.01,-0.65 0.36,-0.61z"></path><path id="路径 25" fill-rule="evenodd" style="fill:#B0322F" opacity="0.6" d="M25.108,36.4143zM25.108,36.4143c0,0 0.969,0.2 1.615,0c-0.265,0.514 -0.881,0.971 -1.615,0z"></path><path id="路径 26 (轮廓)" fill-rule="evenodd" style="fill:#B0322F" opacity="1" d="M24.309 33.1329C24.319 33.1329 24.329 33.1429 24.339 33.1429C24.349 33.1529 24.359 33.1529 24.369 33.1629C24.379 33.1629 24.389 33.1629 24.399 33.1729C24.419 33.1729 24.429 33.1729 24.439 33.1829C24.449 33.1829 24.459 33.1829 24.479 33.1829C24.489 33.1829 24.499 33.1829 24.509 33.1829C24.519 33.1829 24.529 33.1829 24.549 33.1829C24.559 33.1829 24.569 33.1729 24.579 33.1729C24.589 33.1729 24.609 33.1729 24.619 33.1629C24.629 33.1629 24.639 33.1529 24.649 33.1529C24.659 33.1429 24.669 33.1429 24.679 33.1329C24.689 33.1329 24.699 33.1229 24.709 33.1129C24.719 33.1129 24.729 33.1029 24.739 33.0929C24.749 33.0829 24.759 33.0829 24.769 33.0729C24.769 33.0629 24.779 33.0529 24.789 33.0429C24.799 33.0329 24.799 33.0229 24.809 33.0129C24.819 32.9929 24.829 32.9729 24.839 32.9529C24.849 32.9329 24.859 32.9129 24.859 32.8829C24.869 32.8629 24.869 32.8429 24.869 32.8129C24.869 32.7929 24.859 32.7729 24.859 32.7429C24.849 32.7229 24.839 32.7029 24.829 32.6829C24.819 32.6629 24.809 32.6429 24.799 32.6229C24.779 32.6029 24.769 32.5829 24.749 32.5629C24.729 32.5529 24.709 32.5329 24.689 32.5229C24.439 32.3629 24.119 32.2529 23.739 32.1929C22.979 32.0729 22.279 32.2229 21.639 32.6629C21.619 32.6829 21.599 32.6929 21.579 32.7129C21.569 32.7329 21.549 32.7429 21.539 32.7629C21.519 32.7829 21.509 32.8129 21.499 32.8329C21.499 32.8529 21.489 32.8729 21.489 32.8929C21.479 32.9229 21.479 32.9429 21.479 32.9629C21.479 32.9929 21.479 33.0129 21.489 33.0329C21.489 33.0629 21.499 33.0829 21.509 33.1029C21.519 33.1229 21.529 33.1429 21.549 33.1629C21.549 33.1729 21.559 33.1829 21.569 33.1929C21.579 33.2029 21.579 33.2129 21.589 33.2129C21.599 33.2229 21.609 33.2329 21.619 33.2429C21.629 33.2429 21.639 33.2529 21.649 33.2629C21.659 33.2629 21.669 33.2729 21.679 33.2729C21.689 33.2829 21.699 33.2829 21.709 33.2929C21.719 33.2929 21.739 33.3029 21.749 33.3029C21.759 33.3029 21.769 33.3129 21.779 33.3129C21.789 33.3129 21.809 33.3129 21.819 33.3129C21.829 33.3129 21.839 33.3129 21.849 33.3129C21.869 33.3129 21.879 33.3129 21.889 33.3129C21.899 33.3129 21.909 33.3129 21.929 33.3029C21.939 33.3029 21.949 33.3029 21.959 33.3029C21.969 33.2929 21.979 33.2929 21.989 33.2829C22.009 33.2829 22.019 33.2729 22.029 33.2729C22.039 33.2629 22.049 33.2529 22.059 33.2529C22.539 32.9229 23.059 32.8029 23.619 32.8929C23.899 32.9429 24.129 33.0229 24.309 33.1329Z"></path><path id="路径 27 (轮廓)" fill-rule="evenodd" style="fill:#B0322F" opacity="1" d="M27.269 32.5229C27.249 32.5329 27.229 32.5529 27.219 32.5629C27.199 32.5829 27.179 32.6029 27.169 32.6229C27.149 32.6429 27.139 32.6629 27.129 32.6829C27.119 32.7029 27.109 32.7229 27.109 32.7429C27.099 32.7729 27.099 32.7929 27.099 32.8129C27.099 32.8429 27.099 32.8629 27.109 32.8829C27.109 32.9129 27.119 32.9329 27.119 32.9529C27.129 32.9729 27.139 32.9929 27.159 33.0129C27.169 33.0329 27.179 33.0529 27.199 33.0729C27.219 33.0829 27.229 33.1029 27.249 33.1129C27.269 33.1329 27.289 33.1429 27.319 33.1529C27.339 33.1629 27.359 33.1729 27.379 33.1729C27.409 33.1829 27.429 33.1829 27.459 33.1829C27.479 33.1829 27.499 33.1829 27.529 33.1829C27.549 33.1729 27.569 33.1729 27.599 33.1629C27.619 33.1529 27.639 33.1429 27.659 33.1329C27.839 33.0229 28.069 32.9429 28.349 32.8929C28.909 32.8029 29.429 32.9229 29.909 33.2529C29.919 33.2529 29.929 33.2629 29.939 33.2729C29.949 33.2729 29.959 33.2829 29.969 33.2829C29.979 33.2929 29.989 33.2929 30.009 33.3029C30.019 33.3029 30.029 33.3029 30.039 33.3029C30.049 33.3129 30.059 33.3129 30.079 33.3129C30.089 33.3129 30.099 33.3129 30.109 33.3129C30.119 33.3129 30.139 33.3129 30.149 33.3129C30.159 33.3129 30.169 33.3129 30.179 33.3129C30.199 33.3129 30.209 33.3029 30.219 33.3029C30.229 33.3029 30.239 33.2929 30.249 33.2929C30.259 33.2829 30.269 33.2829 30.289 33.2729C30.299 33.2729 30.309 33.2629 30.319 33.2629C30.329 33.2529 30.339 33.2429 30.349 33.2429C30.359 33.2329 30.359 33.2229 30.369 33.2129C30.379 33.2129 30.389 33.2029 30.399 33.1929C30.409 33.1829 30.409 33.1729 30.419 33.1629C30.429 33.1429 30.449 33.1229 30.459 33.1029C30.459 33.0829 30.469 33.0629 30.479 33.0329C30.479 33.0129 30.489 32.9929 30.489 32.9629C30.489 32.9429 30.479 32.9229 30.479 32.8929C30.479 32.8729 30.469 32.8529 30.459 32.8329C30.449 32.8129 30.439 32.7829 30.429 32.7629C30.419 32.7429 30.399 32.7329 30.379 32.7129C30.369 32.6929 30.349 32.6829 30.329 32.6629C29.679 32.2229 28.979 32.0729 28.219 32.1929C27.849 32.2529 27.529 32.3629 27.269 32.5229Z"></path><path id="路径 28" fill-rule="evenodd" style="fill:#B0322F" opacity="0.76" d="M24.9243,28.2381zM20.3343,33.8681c-0.49,-4.09 2.83,-5.29 4.59,-5.63c-0.39,1.44 -1.56,4.49 -4.58,5.74c0,-0.03 -0.01,-0.07 -0.01,-0.11z"></path><path id="路径 29" fill-rule="evenodd" style="fill:#FF7E6E" opacity="1" d="M1.36003,73.2032zM7.00003,79.1132c-1.8,1.67 -4.69,1.43 -6.16,-0.52l-0.05,-0.07c-1.24,-1.65 -1,-3.95 0.57,-5.32l13.90997,-12.22h7.04c0.52,0 0.94,0.41 0.94,0.92v0.02c0,0.5 -0.42,0.92 -0.94,0.92h-2.64c-0.41,0 -0.75,0.32 -0.75,0.73v0.02c0,0.4 0.34,0.73 0.75,0.73h1.93c0.78,0 1.34,0.74 1.11,1.46l-0.41,1.29c-0.29,0.89 -0.99,1.59 -1.89,1.89l-3.91,1.3z"></path><path id="路径 30" fill-rule="evenodd" style="fill:#D3635B" opacity="1" d="M15.2749,60.9849zM15.2749,60.9849l3.98,-3.33c0.52,-0.44 1.19,-0.68 1.88,-0.68h0.4c0.68,0 1.23,0.53 1.23,1.19v0.03c0,0.66 -0.55,1.19 -1.23,1.19h-1.12l-1.4,1.6z"></path><path id="路径 31" fill-rule="evenodd" style="fill:#2F0405" opacity="0.18" d="M0.6823,74.1883zM0.5423,74.1983c0.04,0 0.09,-0.01 0.14,-0.01c2.53,0 4.58,2 4.58,4.46c0,0.52 -0.1,1.02 -0.27,1.49c-1.52,0.31 -3.16,-0.23 -4.15,-1.55l-0.05,-0.06c-0.98,-1.3 -1.03,-3 -0.25,-4.33z"></path><path id="路径 32" fill-rule="evenodd" style="fill:#FF7E6E" opacity="1" d="M50.6114,73.2032zM29.2614,65.7832c-0.23,-0.72 0.32,-1.46 1.11,-1.46h1.92c0.42,0 0.75,-0.33 0.75,-0.73v-0.02c0,-0.41 -0.33,-0.73 -0.75,-0.73h-2.64c-0.52,0 -0.94,-0.42 -0.94,-0.92v-0.02c0,-0.51 0.42,-0.92 0.94,-0.92h7.04l13.92,12.22c1.56,1.37 1.8,3.67 0.56,5.32l-0.05,0.07c-1.47,1.95 -4.36,2.19 -6.15,0.52l-9.5,-8.85l-3.91,-1.3c-0.91,-0.3 -1.61,-1 -1.89,-1.89z"></path><path id="路径 33" fill-rule="evenodd" style="fill:#D3635B" opacity="1" d="M36.6907,60.9849zM30.4307,59.3849c-0.68,0 -1.23,-0.53 -1.23,-1.19v-0.03c0,-0.66 0.55,-1.19 1.23,-1.19h0.4c0.69,0 1.36,0.24 1.88,0.68l3.98,3.33h-3.75l-1.39,-1.6z"></path><path id="路径 34" fill-rule="evenodd" style="fill:#2F0405" opacity="0.18" d="M51.2854,74.1883zM51.2854,74.1883c0.05,0 0.09,0.01 0.14,0.01c0.78,1.33 0.72,3.03 -0.25,4.33l-0.05,0.06c-0.99,1.32 -2.64,1.86 -4.15,1.55c-0.17,-0.47 -0.27,-0.97 -0.27,-1.49c0,-2.46 2.05,-4.46 4.58,-4.46z"></path><path id="直线 1 (轮廓)" fill-rule="evenodd" style="fill:#701F18" opacity="1" d="M22.435 66.5009L19.0144 66.6542L19.0255 66.889L22.4461 66.7356L22.435 66.5009Z"></path><path id="直线 2 (轮廓)" fill-rule="evenodd" style="fill:#701F18" opacity="1" d="M29.519 66.7353L32.9396 66.8886L32.9507 66.6539L29.5301 66.5006L29.519 66.7353Z"></path><path id="路径 35" fill-rule="evenodd" style="fill:#FFFFFF" opacity="0.59" d="M28.3616,28.6106zM23.1016,42.1806c-0.85,-5.49 3.81,-11.76 5.26,-13.57c1.71,0.64 3.65,2.06 3.27,5.26c-0.46,3.85 -0.8,5.42 -0.97,6.01c-0.05,0.21 -0.14,0.4 -0.26,0.57c-0.52,0.75 -2.24,2.97 -4.42,2.97c-1.11,0 -2.1,-0.58 -2.88,-1.24z"></path><path id="路径 36" fill-rule="evenodd" style="fill:#FFFFFF" opacity="0.59" d="M28.7153,46.8006zM28.7153,43.3806v3.42c0,1.47 -1.23,2.67 -2.75,2.67h-0.05c-0.61,0 -1.17,-0.2 -1.63,-0.53c0.22,-2.66 3.23,-4.81 4.43,-5.56z"></path><path id="路径 37" fill-rule="evenodd" style="fill:#FFFFFF" opacity="0.59" d="M43.4701,73.1232zM50.5201,79.2332c-1.29,-1.51 -3.51,-3.74 -7.05,-6.11c-6.37,-4.28 -6.78,-12.14 -6.78,-12.14l13.92,12.22c1.56,1.37 1.81,3.67 0.56,5.32l-0.05,0.07c-0.18,0.24 -0.38,0.45 -0.6,0.64z"></path><path id="路径 38" fill-rule="evenodd" style="fill:#B0322F" opacity="0.41" d="M8.5,73.1232zM8.5,73.1232c-3.54,2.37 -5.77,4.6 -7.05,6.11c-0.22,-0.19 -0.43,-0.4 -0.61,-0.64l-0.05,-0.07c-1.24,-1.65 -1,-3.95 0.57,-5.32l13.91,-12.22c0,0 -0.4,7.86 -6.77,12.14z"></path><path id="直线 3 (轮廓)" fill-rule="evenodd" style="fill:#992620" opacity="1" d="M49.025 71.6502L37.6832 61.6967L37.5214 61.8713L48.8632 71.8248L49.025 71.6502Z"></path><path id="直线 4 (轮廓)" fill-rule="evenodd" style="fill:#992620" opacity="1" d="M3.10165 71.8246L14.4434 61.871L14.2816 61.6965L2.93987 71.65L3.10165 71.8246Z"></path><path id="路径 39" fill-rule="evenodd" style="fill:#FFFFFF" opacity="0.59" d="M43.746,55.7174zM36.936,48.3974c3.25,1.36 5.74,4.03 6.81,7.32l2.09,6.43c-10.22,-2.67 -13.34,-11.73 -14.25,-15.9l4.49,1.79z"></path><path id="路径 40" fill-rule="evenodd" style="fill:#7C2D7B" opacity="0.54" d="M22.7651,80.223zM25.8851,72.933c4.26,-3.24 2,2.58 -3.12,7.29c-5.13,4.72 -5.41,9.65 -0.83,7.65c3.73,-1.64 4.74,-0.81 0.15,2.24h-10.23l1.04,-10.88c0,0 8.73,-3.07 12.99,-6.3z"></path><path id="路径 41 (轮廓)" fill-rule="evenodd" style="fill:#7C2D7B" opacity="1" d="M31.8977 39.0613L31.6477 39.0613L31.6477 39.8913C31.6477 40.7013 30.9777 41.3513 30.1577 41.3513L25.9577 41.3513L25.9577 41.5913L30.1577 41.5913C31.1177 41.5913 31.8977 40.8313 31.8977 39.8913L31.8977 39.0613Z"></path><path id="路径 42" fill-rule="evenodd" style="fill:#7C2D7B" opacity="1" d="M27.341,41.569zM27.341,41.569c0,0.273 -0.227,0.495 -0.508,0.495h-1.216c-0.281,0 -0.509,-0.222 -0.509,-0.495c0,-0.273 0.228,-0.495 0.509,-0.495h1.216c0.281,0 0.508,0.222 0.508,0.495z"></path></g></svg>